<?xml version="1.0" encoding="UTF-8"?><svg width="26" height="26" version="1.1" viewBox="0 0 26 26" xmlns="http://www.w3.org/2000/svg" xmlns:xlink="http://www.w3.org/1999/xlink"><!--Generated by IJSVG (https://github.com/curthard89/IJSVG)--><g transform="scale(0.866667)"><g fill="#FFFFFF"><path d="M9.8,12.7h-7.8c-1.1,0 -2,-0.9 -2,-2v-8.7c0,-1.1 0.9,-2 2,-2h7.8c1.1,0 2,0.9 2,2v8.7c0.1,1.1 -0.8,2 -2,2Zm-7.8,-11.8c-0.6,0 -1,0.5 -1,1v8.7c0,0.6 0.5,1 1,1h7.8c0.6,0 1,-0.5 1,-1v-8.7c0,-0.6 -0.5,-1 -1,-1h-7.8Z" transform="translate(3.1, 14.2)"></path><use transform="translate(3.1, 18.1)" xlink:href="#path-1"></use><use transform="translate(3.1, 21.9)" xlink:href="#path-1"></use><use transform="translate(11.5414, 16.0414)" xlink:href="#path-2"></use><use transform="translate(11.5414, 19.8414)" xlink:href="#path-2"></use><use transform="translate(11.5414, 23.6414)" xlink:href="#path-2"></use><path d="M9.8,12.7h-7.8c-1.1,0 -2,-0.9 -2,-2v-8.7c0,-1.1 0.9,-2 2,-2h7.8c1.1,0 2,0.9 2,2v8.7c0,1.1 -0.9,2 -2,2Zm-7.8,-11.8c-0.6,8.88178e-16 -1,0.5 -1,1v8.7c0,0.6 0.5,1 1,1h7.8c0.6,0 1,-0.5 1,-1v-8.6c0,-0.6 -0.5,-1 -1,-1h-7.8Z" transform="translate(15.1, 3.2)"></path><use transform="translate(15, 7.1)" xlink:href="#path-1"></use><use transform="translate(15, 10.9)" xlink:href="#path-1"></use><use transform="translate(23.4414, 5.04142)" xlink:href="#path-2"></use><use transform="translate(23.4414, 8.84142)" xlink:href="#path-2"></use><use transform="translate(23.4414, 12.6414)" xlink:href="#path-2"></use></g><g fill="#FFFFFF" transform="scale(0.99999) rotate(45, 10.3932, 7.76473)"><use transform="translate(9.9, 4.2)" xlink:href="#path-3"></use></g><g fill="#FFFFFF" transform="scale(0.99999) rotate(45, 6.32575, 11.8322)"><use transform="translate(5.8, 11)" xlink:href="#path-4"></use></g><g fill="#FFFFFF"><path d="M3.3,3.3h-1v-2.3h-2.3v-1h2.8v0c0.1,0 0.3,0.1 0.4,0.1c0.1,0 0.1,0.2 0.1,0.4v2.8Z" transform="translate(9.9, 4.9)"></path></g><g fill="#FFFFFF" transform="scale(0.99999) rotate(45, 19.6071, 22.2356)"><use transform="translate(19.1, 18.7)" xlink:href="#path-3"></use></g><g fill="#FFFFFF" transform="scale(0.99999) rotate(45, 23.6745, 18.1681)"><use transform="translate(23.2, 17.3)" xlink:href="#path-4"></use></g><g fill="#FFFFFF"><path d="M0.5,3.3c-0.1,0 -0.3,-0.1 -0.4,-0.1c-0.1,0 -0.1,-0.2 -0.1,-0.4v-2.8h1v2.3h2.3v1h-2.8v0Z" transform="translate(16.8, 21.8)"></path></g></g><defs><path id="path-4" d="M0,0h1v1.7h-1Z"></path><path id="path-3" d="M0,0h1v7.1h-1Z"></path><path id="path-2" d="M1.08284,0.234315c0.234315,0.234315 0.234315,0.614214 0,0.848528c-0.234315,0.234315 -0.614214,0.234315 -0.848528,0c-0.234315,-0.234315 -0.234315,-0.614214 0,-0.848528c0.234315,-0.234315 0.614214,-0.234315 0.848528,0"></path><path id="path-1" d="M0,0h11.9v1h-11.9Z"></path></defs></svg>