<?xml version="1.0" encoding="UTF-8"?><svg width="26" height="26" version="1.1" viewBox="0 0 26 26" xmlns="http://www.w3.org/2000/svg" xmlns:xlink="http://www.w3.org/1999/xlink"><!--Generated by IJSVG (https://github.com/curthard89/IJSVG)--><g transform="scale(1.08333)"><g fill="#FFFFFF"><path d="M11.5,17.3c-0.1,0 -0.2,0 -0.3,-0.1c-2,-1.4 -4.5,-2.2 -7.2,-2.2c-1.2,0 -2.4,0.2 -3.4,0.5c-0.2,0 -0.3,0 -0.4,-0.1c-0.1,-0.1 -0.2,-0.2 -0.2,-0.4v-13.4c0,-0.2 0.2,-0.4 0.4,-0.5c4.1,-1.1 8.3,-0.3 11.4,1.9c0.1,0.1 0.2,0.2 0.2,0.4v13.4c0,0.2 -0.1,0.4 -0.3,0.4c-0.1,0 -0.1,0.1 -0.2,0.1Zm-7.5,-3.3c2.5,0 5,0.7 7,1.9v-12.2c-2.7,-1.9 -6.4,-2.6 -10.1,-1.7v12.3c1,-0.2 2,-0.3 3.1,-0.3Z" transform="translate(0.5, 1.2)"></path><path d="M0.5,17.3c-0.1,0 -0.2,0 -0.2,-0.1c-0.2,-0.1 -0.3,-0.3 -0.3,-0.4v-13.4c0,-0.2 0.1,-0.3 0.2,-0.4c3.1,-2.2 7.4,-3 11.5,-1.9c0.2,0.1 0.4,0.3 0.4,0.5v13.4c0,0.2 -0.1,0.3 -0.2,0.4c-0.1,0.1 -0.3,0.1 -0.4,0.1c-1.1,-0.3 -2.3,-0.5 -3.5,-0.5c-2.6,0 -5.2,0.8 -7.2,2.2c-0.1,0 -0.2,0.1 -0.3,0.1Zm0.5,-13.6v12.1c2,-1.2 4.5,-1.9 7,-1.9c1.1,0 2.1,0.1 3.1,0.3v-12.2c-3.7,-0.9 -7.3,-0.2 -10.1,1.7Z" transform="translate(11.5, 1.2)"></path><path d="M11.5,7c-0.1,0 -0.2,0 -0.3,-0.1c-2,-1.4 -4.5,-2.2 -7.2,-2.2c-1.2,0 -2.4,0.2 -3.4,0.5c-0.2,0 -0.3,0 -0.4,-0.1c-0.1,-0.1 -0.2,-0.2 -0.2,-0.4v-3.7c0,-0.2 0.1,-0.4 0.4,-0.5c1.2,-0.3 2.4,-0.5 3.7,-0.5c2.7,0 5.4,0.8 7.5,2.2c2.1,-1.4 4.8,-2.2 7.5,-2.2c1.3,0 2.5,0.2 3.7,0.5c0.2,0.1 0.4,0.3 0.4,0.5v3.7c0,0.2 -0.1,0.3 -0.2,0.4c-0.1,0.1 -0.3,0.1 -0.4,0.1c-1.1,-0.3 -2.3,-0.5 -3.5,-0.5c-2.6,0 -5.2,0.8 -7.2,2.2c-0.2,0.1 -0.3,0.1 -0.4,0.1Zm-7.5,-3.3c2.7,0 5.4,0.8 7.5,2.2c2.1,-1.4 4.8,-2.2 7.5,-2.2c1.1,0 2.1,0.1 3.1,0.3v-2.7c-1,-0.2 -2,-0.4 -3.1,-0.4c-2.6,0 -5.2,0.8 -7.2,2.2c-0.2,0.1 -0.4,0.1 -0.6,0c-2,-1.4 -4.5,-2.2 -7.2,-2.2c-1.1,0 -2.1,0.1 -3.1,0.4v2.7c1,-0.2 2,-0.3 3.1,-0.3Z" transform="translate(0.5, 15.2)"></path><path d="M5.5,4.3c-0.1,0 -0.1,0 -0.2,0c-1.5,-0.7 -3.1,-1 -4.8,-1c-0.3,0 -0.5,-0.2 -0.5,-0.5v-2.4c0,-0.1 0,-0.3 0.1,-0.3c0.1,0 0.2,-0.1 0.4,-0.1v0c1.8,0 3.6,0.3 5.2,1c0.1,0 0.3,0.1 0.3,0.3v2.4c0,0.2 -0.1,0.4 -0.3,0.5c0,0 -0.1,0.1 -0.2,0.1Zm-4.5,-2c1.4,0 2.7,0.3 4,0.7v-1.3c-1.3,-0.5 -2.6,-0.7 -4,-0.8v1.4Z" transform="translate(4, 4.9)"></path><path d="M5.5,1.9c-0.1,0 -0.1,0 -0.2,0c-1.5,-0.6 -3.1,-0.9 -4.8,-0.9c-0.3,0 -0.5,-0.2 -0.5,-0.5c0,-0.3 0.2,-0.5 0.5,-0.5c1.8,0 3.5,0.3 5.2,1c0.3,0.1 0.4,0.4 0.3,0.6c-0.1,0.2 -0.3,0.3 -0.5,0.3Z" transform="translate(4, 9.7)"></path><path d="M5.5,1.9c-0.1,0 -0.1,0 -0.2,0c-1.5,-0.6 -3.1,-0.9 -4.8,-0.9c-0.3,0 -0.5,-0.2 -0.5,-0.5c0,-0.3 0.2,-0.5 0.5,-0.5v0c1.8,0 3.5,0.3 5.2,1c0.3,0.1 0.4,0.4 0.3,0.6c-0.1,0.2 -0.3,0.3 -0.5,0.3Z" transform="translate(4, 12.1)"></path><path d="M0.6,1.9c-0.2,0 -0.4,-0.1 -0.5,-0.3c-0.1,-0.3 0,-0.5 0.3,-0.6c1.6,-0.6 3.3,-1 5.1,-1c0,0 0,0 0,0c0.3,0 0.5,0.2 0.5,0.5c0,0.3 -0.2,0.5 -0.5,0.5c-1.7,0 -3.3,0.3 -4.8,0.9c0.1,0 1.77636e-15,0 -0.1,0Z" transform="translate(13.9, 7.3)"></path><path d="M0.6,1.9c-0.2,0 -0.4,-0.1 -0.5,-0.3c-0.1,-0.3 0,-0.5 0.3,-0.6c1.6,-0.6 3.3,-1 5.1,-1v0c0.4,-8.88178e-16 0.6,0.2 0.6,0.5c0,0.3 -0.2,0.5 -0.5,0.5c-1.7,0 -3.3,0.3 -4.8,0.9c0,0 -0.1,0 -0.2,0Z" transform="translate(13.9, 4.8)"></path><path d="M0.6,1.9c-0.2,0 -0.4,-0.1 -0.5,-0.3c-0.1,-0.3 0,-0.5 0.3,-0.6c1.6,-0.6 3.4,-1 5.1,-1c0.3,0 0.5,0.2 0.5,0.5c0,0.3 -0.2,0.5 -0.5,0.5c-1.6,0 -3.3,0.3 -4.8,0.9c0.1,0 1.77636e-15,0 -0.1,0Z" transform="translate(13.9, 9.7)"></path><path d="M0.6,1.9c-0.2,0 -0.4,-0.1 -0.5,-0.3c-0.1,-0.3 0,-0.5 0.3,-0.6c1.6,-0.6 3.4,-1 5.1,-1v0c0.3,0 0.5,0.2 0.5,0.5c0,0.3 -0.2,0.5 -0.5,0.5c-1.6,0 -3.3,0.3 -4.8,0.9c0.1,0 1.77636e-15,0 -0.1,0Z" transform="translate(13.9, 12.1)"></path></g></g></svg>