<?xml version="1.0" encoding="UTF-8"?><svg width="26" height="26" version="1.1" viewBox="0 0 26 26" xmlns="http://www.w3.org/2000/svg" xmlns:xlink="http://www.w3.org/1999/xlink"><!--Generated by IJSVG (https://github.com/curthard89/IJSVG)--><g transform="scale(0.866667)"><g fill="#FFFFFF"><path d="M21.392,23.89h-18.892c-1.379,0 -2.5,-1.121 -2.5,-2.5v-18.89c0,-1.379 1.121,-2.5 2.5,-2.5h18.893c1.379,0 2.5,1.121 2.5,2.5v18.891c-0.001,1.378 -1.122,2.499 -2.501,2.499Zm-18.892,-22.89c-0.827,0 -1.5,0.673 -1.5,1.5v18.891c0,0.827 0.673,1.5 1.5,1.5h18.893c0.827,0 1.5,-0.673 1.5,-1.5v-18.891c0,-0.827 -0.673,-1.5 -1.5,-1.5h-18.893Z" transform="translate(3.054, 3.055)"></path><path d="M1.623,14.777c-0.079,0 -0.159,-0.019 -0.233,-0.058c-0.217,-0.114 -0.318,-0.369 -0.241,-0.602l1.888,-5.636h-2.511c-0.172,0 -0.331,-0.088 -0.423,-0.233c-0.092,-0.145 -0.103,-0.326 -0.028,-0.481l3.562,-7.482c0.083,-0.174 0.258,-0.285 0.451,-0.285h3.741c0.179,0 0.344,0.096 0.433,0.25c0.09,0.154 0.09,0.346 0,0.5l-2.549,4.416h2.442c0.189,0 0.363,0.107 0.448,0.277c0.084,0.17 0.064,0.373 -0.05,0.524l-6.531,8.611c-0.098,0.129 -0.246,0.199 -0.399,0.199Zm-0.305,-7.295h2.413c0.161,0 0.312,0.077 0.406,0.208c0.094,0.131 0.119,0.298 0.068,0.451l-1.143,3.41l4.085,-5.386h-2.302c-0.179,0 -0.344,-0.096 -0.433,-0.25c-0.09,-0.154 -0.09,-0.346 0,-0.5l2.549,-4.416h-2.56l-3.083,6.483Z" transform="translate(10.66, 7.612)"></path></g></g></svg>